<svg xmlns="http://www.w3.org/2000/svg" viewBox="0 0 1024 1024">
    <path fill="currentColor" d="m116,4c-62.715,0 -113,50.23555 -113,112.88888l0,790.22221a113,112.88888 0 0 0 113,112.88888l791.00001,0a113,112.88888 0 0 0 113,-112.88888l0,-790.22221a113,112.88888 0 0 0 -113,-112.88888l-791.00001,0zm207.24201,194.56399c14.69,0 27.00699,4.85422 36.83799,14.44978s14.803,21.39243 14.803,35.27777c0,19.19111 -0.791,48.09067 -2.3165,86.75511c-1.243,38.38222 -1.8645,67.16888 -1.8645,86.36c0,6.26533 -0.904,18.40088 -2.65551,36.35022a347.4185,347.07687 0 0 0 -1.8645,38.38223l145.657,-27.37556c56.8955,-10.10355 105.881,-15.86088 147.0695,-17.38488c1.017,-16.93333 2.712,-62.37111 4.972,-136.36978c0.565,-19.47333 6.4975,-41.88177 17.9105,-67.16888c14.125,-31.04445 30.11451,-46.62311 48.08151,-46.62311c13.3905,0 25.31199,4.51556 35.65149,13.3209c11.13051,9.59555 16.6675,21.56177 16.6675,35.9551a43.7875,43.74445 0 0 1 -1.4125,11.34533c-5.085,18.45733 -7.6275,34.544 -7.6275,48.20356c0,7.05555 -0.791,18.06222 -2.3165,32.96355c-1.2995,14.67555 -1.8645,25.56933 -1.8645,32.62488c0,23.9889 -1.243,59.60533 -3.7855,106.84933a2201.5225,2199.35772 0 0 0 -3.842,106.79289c0,18.45733 1.4125,46.05867 4.181,82.6911c2.82501,36.63245 4.18101,64.1209 4.18101,82.57823a47.46,47.41333 0 0 1 -14.7465,35.27777a50.4545,50.40488 0 0 1 -36.72501,14.3369a56.5,56.44445 0 0 1 -38.759,-14.3369a43.9005,43.85733 0 0 1 -16.385,-34.48755c0,-18.45733 -0.8475,-46.17155 -2.599,-83.02978a2234.801,2232.60348 0 0 1 -2.3165,-82.97333c0,-14.44977 0.22599,-27.20622 0.73449,-38.32577c-39.663,1.80622 -88.70499,8.07155 -147.0695,18.62667c-48.59,8.86177 -97.1235,17.83644 -145.657,26.924c-0.56499,17.1591 -2.373,45.83288 -5.424,85.96488a1263.0575,1261.81551 0 0 0 -3.729,86.81155a47.46,47.41333 0 0 1 -14.80299,35.27778a50.4545,50.40488 0 0 1 -36.72501,14.28045a50.737,50.68711 0 0 1 -36.8945,-14.28045a47.46,47.41333 0 0 1 -14.803,-35.27778c0,-25.56933 2.14701,-63.66933 6.441,-114.46933c4.52001,-50.8 6.78,-88.9 6.78,-114.41288c0,-32.34267 0.8475,-81.05422 2.373,-145.96533c1.5255,-65.19333 2.26,-113.84845 2.26,-146.19111a47.46,47.41333 0 0 1 14.8595,-35.27777a50.5675,50.51778 0 0 1 36.72501,-14.44978z"/>
</svg>