<svg xmlns="http://www.w3.org/2000/svg" viewBox="0 0 1024 1024">
    <path fill="currentColor" d="m1020.47,981.69l-69.69,-395.19l23.54,0c18.93,0 34.19,-15 34.19,-33.62l0,-248.28c0,-18.62 -15.25,-33.62 -34.19,-33.62l-323.45,0l0,-235.35c0,-18.62 -15.25,-33.62 -34.19,-33.62l-210.37,0c-18.93,0 -34.19,15 -34.19,33.62l0,235.35l-323.45,0c-18.93,0 -34.19,15 -34.19,33.62l0,248.28c0,18.62 15.25,33.62 34.19,33.62l23.54,0l-69.69,395.19c-0.39,1.94 -0.53,3.88 -0.53,5.69c0,18.62 15.25,33.62 34.19,33.62l950.63,0c1.97,0 3.94,-0.13 5.79,-0.52c18.67,-3.1 31.16,-20.56 27.87,-38.79m-913.94,-620.19l357.64,0l0,-268.97l94.67,0l0,268.97l357.64,0l0,134.49l-809.94,0l0,-134.49zm615.34,568.98l0,-201.73c0,-5.69 -4.73,-10.35 -10.52,-10.35l-63.11,0c-5.79,0 -10.52,4.66 -10.52,10.35l0,201.73l-252.45,0l0,-201.73c0,-5.69 -4.73,-10.35 -10.52,-10.35l-63.11,0c-5.79,0 -10.52,4.66 -10.52,10.35l0,201.73l-196.17,0l59.3,-336.22l694.37,0l59.3,336.22l-196.04,0z"/>
</svg>