<svg xmlns="http://www.w3.org/2000/svg" viewBox="0 0 1024 1024">
    <path d="m584.15,474l334.85,0l0,88l-334.85,0l0,-88zm0,132l334.85,0l0,88l-334.85,0l0,-88z" fill="currentColor"/>
    <path d="m694.14,366.29l0,-124.43c0,-51.91 -44.17,-94.15 -98.36,-94.15l-120.1,0l0.11,-145.6l-255,-0.11l-0.11,145.83l-120.33,0c-54.19,0 -98.36,42.23 -98.36,94.15l0,576.71c0,51.91 44.17,94.15 98.36,94.15l375.33,0l0,109.29l374.42,0l171.9,-201.15l0,-454.67l-327.86,0zm-400.6,-291.43l109.29,0.11l0,72.86l-109.29,0l0,-72.97zm182.14,765l-375.33,0c-14.12,0 -25.5,-9.56 -25.5,-21.29l0,-576.71c0,-11.73 11.38,-21.29 25.5,-21.29l47.47,0l-0.11,106.9l400.6,0.23l0.11,-107.12l47.36,0c14.12,0 25.5,9.56 25.5,21.29l0,124.43l-145.6,0l0,473.57zm348.35,100.63l0,-137.06l117.14,0l-117.14,137.06zm125.11,-209.92l-197.97,0l0,218.57l-202.63,0l0,-510l400.6,0l0,291.43z" fill="currentColor" transform="matrix(1 0 0 1 0 0)"/>
</svg>