<svg xmlns="http://www.w3.org/2000/svg" viewBox="0 0 1024 1024">
    <path fill-opacity="0.8956" fill="currentColor" d="m511.49998,585.07427l-421.59835,422.01211c-9.931,9.94177 -21.84923,14.91469 -35.75365,14.91469c-14.56649,0 -26.81524,-4.80699 -36.74726,-14.41689c-9.60048,-9.94177 -14.40072,-22.20254 -14.40072,-36.78332c0,-13.91807 4.96601,-25.84799 14.89702,-35.78976l421.59835,-422.0111l-421.59835,-422.01211c-9.931,-9.94177 -14.89702,-22.0366 -14.89702,-36.28654c0,-6.95903 1.32413,-13.5862 3.9724,-19.88252c2.64827,-6.29632 6.29014,-11.59805 10.92461,-15.90622c4.63549,-4.63902 10.09779,-8.28447 16.38794,-10.93534c6.29014,-2.65087 12.91081,-3.9763 19.86303,-3.9763c13.90442,0 25.82265,4.96987 35.75365,14.91164l421.59835,422.01211l421.59835,-422.01211c9.931,-9.94177 22.015,-14.91164 36.24995,-14.91164c6.95221,0 13.40813,1.32543 19.36673,3.9763c6.29014,2.65087 11.75245,6.29632 16.38794,10.93534c4.63447,4.63902 8.27635,10.1077 10.92461,16.403c2.64827,5.96547 3.9724,12.4267 3.9724,19.38574c0,14.24994 -4.96601,26.34477 -14.89702,36.28654l-421.59835,422.01211l421.59835,422.0111c9.931,9.94177 14.89702,21.87169 14.89702,35.78976c0,6.95903 -1.32413,13.5862 -3.9724,19.88252c-2.64827,6.29632 -6.29014,11.76399 -10.92461,16.403c-4.30394,4.64004 -9.6015,8.28447 -15.89062,10.93534c-6.29014,2.65188 -12.91183,3.97935 -19.86404,3.97935c-14.23495,0 -26.31894,-4.97292 -36.24995,-14.91469l-421.59835,-422.01211z"/>
</svg>