<svg viewBox="0 0 1024 1024" xmlns="http://www.w3.org/2000/svg">
    <path fill="currentColor" d="M772.601006 60.365205H246.982027C134.349389 60.365205 42.32926 152.385334 42.32926 265.017973v525.618979c0 112.632638 92.020129 204.652768 204.652767 204.652768h525.618979c112.632638 0 204.652768-92.020129 204.652768-204.652768V265.017973c0-112.632638-92.020129-204.652768-204.652768-204.652768zM254.343638 213.4867c36.808052 31.654925 71.40762 65.518332 103.062545 103.062545l-33.863408 36.071891c-30.182602-39.016535-64.04601-75.088426-101.590223-106.74335l32.391086-32.391086z m19.140187 594.081956c-7.36161-13.250899-16.931704-25.029475-27.97412-35.33573 21.34867-17.667865 34.599569-43.433501 36.071891-70.671459v-242.933142H182.199856v-49.322789h146.496046v292.255931l69.199138-50.058951c3.680805 14.723221 8.833932 28.71028 14.72322 43.433501-50.05895 32.391086-96.437096 70.671459-139.134435 112.632639z m210.542056-82.450036h-44.905823V457.892164h198.763479v220.84831H484.025881v46.378146z m-70.67146-337.161754v-44.169663H670.274623v44.169663H413.354421z m325.383178 428.445722c-36.071891 9.570093-74.352265 12.514738-111.160316 9.570094-3.680805-17.667865-9.570093-35.33573-16.931704-51.531273 41.225018 2.208483 80.977714 1.472322 92.75629 0.736161 2.208483 0.736161 3.680805 0.736161 5.889288 0 7.36161-1.472322 11.042416-8.833932 9.570094-16.195543V274.588066H396.422717v-47.850467H765.975557v532.244428c5.153127 23.557153-5.889288 47.114306-27.237958 57.420561z"
    />
    <path fill="currentColor"  d="M484.025881 501.325665h108.951833v131.036664H484.025881z"/>
</svg>
