<svg xmlns="http://www.w3.org/2000/svg" viewBox="0 0 1024 1024">
    <g fill="none">
        <path d="m1023,0l0,1021.99997l-1023,0l0,-1021.99997l1023,0zm-486.18075,990.40314l-0.5115,0.08517l-3.02638,1.49042l-0.8525,0.17033l-0.59675,-0.17033l-3.02638,-1.533c-0.42625,-0.12775 -0.80987,0 -1.023,0.2555l-0.1705,0.42583l-0.72462,18.22567l0.21312,0.85167l0.42625,0.55358l4.433,3.15117l0.63937,0.17033l0.5115,-0.17033l4.433,-3.15117l0.5115,-0.68133l0.1705,-0.72392l-0.72462,-18.18308c-0.08525,-0.42583 -0.38362,-0.72392 -0.682,-0.7665m11.253,-4.81192l-0.59675,0.08517l-7.843,3.96025l-0.42625,0.42583l-0.12788,0.46842l0.76725,18.31083l0.21312,0.511l0.341,0.34067l8.56762,3.91767c0.5115,0.17033 0.98037,0 1.23613,-0.34067l0.1705,-0.59617l-1.44925,-26.14617c-0.12788,-0.511 -0.42625,-0.85167 -0.8525,-0.93683m-30.47688,0.08517a0.98038,0.97942 0 0 0 -1.15088,0.2555l-0.25575,0.59617l-1.44925,26.14617c0,0.511 0.29837,0.85167 0.72462,1.022l0.63938,-0.08517l8.56762,-3.96025l0.42625,-0.34067l0.12787,-0.46842l0.76725,-18.31083l-0.12788,-0.511l-0.42625,-0.42583l-7.843,-3.91767z"/>
        <path d="m268.23913,267.97691a42.625,42.58333 0 0 1 60.27175,0l182.98913,182.81024l182.98912,-182.81024a42.625,42.58333 0 1 1 60.27175,60.21283l-213.125,212.91666a42.625,42.58333 0 0 1 -60.27175,0l-213.125,-212.91666a42.625,42.58333 0 0 1 0,-60.21283m0,255.49999a42.625,42.58333 0 0 1 60.27175,0l182.98913,182.81024l182.98912,-182.81024a42.625,42.58333 0 0 1 60.27175,60.21283l-213.125,212.91666a42.625,42.58333 0 0 1 -60.27175,0l-213.125,-212.91666a42.625,42.58333 0 0 1 0,-60.21283" fill="currentColor"/>
        <animateTransform
                attributeName="transform"
                attributeType="XML"
                type="translate"
                from="0 0"
                to="0 50"
                dur="1s"
                repeatCount="indefinite"/>
    </g>
</svg>