<svg xmlns="http://www.w3.org/2000/svg" viewBox="0 0 1024 1024">
    <g fill="none" stroke="currentColor" stroke-linecap="round" stroke-linejoin="round" stroke-width="2">
        <path d="m205.5,354.83a148.48,148.33 0 0 1 148.48,-148.33l481.59,0a148.48,148.33 0 0 1 148.48,148.33l0,481.11a148.48,148.33 0 0 1 -148.48,148.33l-481.59,0a148.48,148.33 0 0 1 -148.48,-148.33l0,-481.11z" id="svg_2" stroke-width="75"/>
        <path d="m93.67,799.83a111.22,111.11 0 0 1 -56.17,-96.67l0,-555.56c0,-61.11 50.05,-111.11 111.22,-111.11l556.11,0c41.71,0 64.51,21.11 83.42,55.56" id="svg_3" stroke-width="75"/>
    </g>
</svg>