<svg xmlns="http://www.w3.org/2000/svg" viewBox="0 0 1024 1024">
    <path fill="currentColor" d="m218.45,181.02a49.27,44.61 0 0 0 -69.64,-63.05l-131.4,118.95a49.27,44.61 0 0 0 0,63.05l131.4,118.95a49.27,44.61 0 1 0 69.64,-63.05l-47.3,-42.82l669.48,0a49.27,44.61 0 0 0 0,-89.22l-669.48,0l47.3,-42.82zm587.35,412.77a49.27,44.61 0 0 0 0,63.05l47.3,42.82l-669.48,0a49.27,44.61 0 0 0 0,89.22l669.48,0l-47.3,42.82a49.27,44.61 0 1 0 69.64,63.05l131.4,-118.95a49.27,44.61 0 0 0 0,-63.05l-131.4,-118.95a49.27,44.61 0 0 0 -69.64,0"/>
</svg>