<svg xmlns="http://www.w3.org/2000/svg" viewBox="0 0 1024 1024">
    <path fill="currentColor" d="m77.26,691.59l0,253.25l255.73,0l0,77.16l-330.99,0l0,-330.41l75.26,0zm943.5,0l0,330.41l-333.61,0l0,-77.16l258.28,0l0,-253.25l75.26,0l0.07,0zm-453.6,-485.59l264.84,582.86l-117.74,0l-54.64,-120.73l-268.84,0l-50.41,120.73l-117.74,0l248.01,-582.86l96.6,0l-0.07,0zm-46.2,154.02l-86.19,201.95l176.53,0l-90.34,-201.95zm-187.97,-358.02l0,74.61l-255.73,0l0,328.65l-75.26,0l0,-403.26l330.99,0zm689.01,0l0,330.41l-75.26,0l0,-255.8l-258.94,0l0,-74.61l334.2,0z"/>
</svg>