<svg xmlns="http://www.w3.org/2000/svg" viewBox="0 0 1024 1024">
    <path d="m97.7,840.64c-2.8,0 -5.6,-1.1 -7.7,-3.2c-3.9,-3.9 -4.3,-10.2 -0.8,-14.5l270.83,-375.28c1.9,-2.4 21.77,14.48 24.87,14.38c3.1,-0.2 6.1,1 8.3,3.2l69.1,69.1c2.2,2.2 3.3,5.2 3.2,8.3c-0.2,3.1 7.59,17.92 5.19,19.92l-366.19,275.68c-2,1.6 -4.4,2.4 -6.8,2.4zm289.41,-355.04l-183.37,238.19l230.42,-188.32l-47.05,-49.88zm466.49,-139.46c-17.4,0 -33.7,-6.8 -46,-19.1l-207.2,-207.2c-25.4,-25.4 -25.4,-66.7 0,-92.1c25.4,-25.4 66.7,-25.4 92.1,0l207.2,207.2c25.4,25.4 25.4,66.7 0,92.1c-12.3,12.3 -28.7,19.1 -46.1,19.1zm-207.2,-294c-5.6,0 -11.1,2.1 -15.4,6.3c-8.5,8.5 -8.5,22.2 0,30.7l207.2,207.2c8.2,8.2 22.5,8.2 30.7,0c8.5,-8.5 8.5,-22.2 0,-30.7l-207.1,-207.2c-4.2,-4.2 -9.8,-6.3 -15.4,-6.3zm-42.2,661.2c-5.6,0 -11.1,-2.1 -15.3,-6.4l-368.4,-368.4c-8.5,-8.5 -8.5,-22.2 0,-30.7c24.6,-24.6 57.3,-38.1 92.1,-38.1s67.5,13.5 92.1,38.1l214.9,214.9c50.8,50.8 50.8,133.4 0,184.2c-4.3,4.3 -9.8,6.4 -15.4,6.4zm-335.7,-388.2l333.8,333.8c7.8,-13.2 12,-28.4 12,-44.1c0,-23.2 -9,-45 -25.4,-61.4l-214.9,-214.9c-16.4,-16.4 -38.2,-25.4 -61.4,-25.4c-15.8,0 -30.9,4.2 -44.1,12zm343.4,242.4c-5.7,0 -11.3,-2.3 -15.3,-6.4l-230.3,-230.2c-4.3,-4.3 -6.6,-10.3 -6.3,-16.5c0.3,-6.1 3.2,-11.8 8,-15.7l245.6,-199.5c8.6,-7 21.2,-6.4 29,1.5l184.2,184.2c7.9,7.9 8.5,20.4 1.5,29l-199.5,245.5c-3.9,4.8 -9.6,7.7 -15.7,8c-0.4,0.1 -0.8,0.1 -1.2,0.1zm-197.9,-250.3l196.2,196.2l172,-211.7l-156.4,-156.5l-211.8,172z"  fill="currentColor" transform="rotate(-45 503 424)"/>
</svg>