<svg xmlns="http://www.w3.org/2000/svg" viewBox="0 0 1024 1024">
    <path fill="currentColor" d="m879.82,187.31l0,648.26l-736.18,0l0,-648.26l736.18,0m56.7,-61.81l-849.58,0l0,771.76l849.47,0l0,-771.76l0.11,0zm-849.58,-123.5l0,123.5l-84.94,0l0,61.81l141.64,0l0,-185.31l-56.7,0zm849.58,1018.75l0,-123.5l84.94,0l0,-61.81l-141.64,0l0,185.31l56.7,0zm-425.93,-269.33l-243.08,0c-8.88,0 -23.23,-3.6 -26.53,-9.68c-3.3,-6.08 2.16,-20.48 6.6,-28.92c29.83,-49.4 60.8,-98.8 90.63,-148.2c9.91,-15.64 19.92,-16.88 35.41,-9.68c50.78,26.56 102.81,53 154.73,79.56c14.35,7.2 31.99,2.36 40.87,-12.04c27.67,-47.04 56.36,-92.72 86.19,-138.51c5.58,-8.44 15.48,-21.72 23.23,-21.72c8.88,0 15.48,15.64 18.79,25.32c27.67,74.72 54.19,150.55 80.72,225.27c11.04,31.28 6.6,38.6 -26.53,38.6l-241.03,0zm-89.49,-369.87c0,36.12 -28.69,65.04 -61.94,63.8c-33.13,-1.24 -58.52,-28.92 -58.52,-63.8c0,-36.12 27.67,-65.04 61.94,-63.8c30.85,1.12 58.52,30.04 58.52,63.8z"/>
</svg>