<svg xmlns="http://www.w3.org/2000/svg" viewBox="0 0 1024 1024">
    <path fill="currentColor" d="m1009.43371,66.43398l-50.48649,-50.67295c-1.94179,-1.94896 -4.36902,-2.76103 -6.79626,-2.76103s-4.85447,0.97448 -6.79626,2.76103l-90.61677,90.95145c-39.48302,-26.7982 -85.92412,-41.09057 -133.49793,-41.09057c-61.00451,0 -122.00901,23.38752 -168.61193,70.00014l-121.36175,121.80998c-3.72176,3.73551 -3.72176,9.7448 0,13.4803l323.63134,324.82661c1.94179,1.94896 4.36902,2.76103 6.79626,2.76103s4.85447,-0.97448 6.79626,-2.76103l121.36175,-121.80998c82.04054,-82.50596 91.74948,-210.16282 28.965,-303.06323l90.61677,-90.95145c3.72176,-3.73551 3.72176,-9.7448 0,-13.4803z"/>
    <path fill="currentColor" d="m577.53822,571.1957c-3.71108,-3.68758 -9.68108,-3.68758 -13.39216,0l-79.06215,78.56143l-107.29863,-106.61908l79.2235,-78.72176c3.71108,-3.68758 3.71108,-9.61977 0,-13.30734l-43.24216,-42.96829c-3.71108,-3.68758 -9.68108,-3.68758 -13.39216,0l-79.2235,78.72176l-51.14837,-50.82443c-1.77486,-1.76362 -4.19513,-2.7256 -6.77676,-2.7256c-2.42027,0 -4.84054,0.96198 -6.77676,2.7256l-120.85214,120.24708c-81.80512,81.28703 -91.4862,207.4663 -28.88189,299.17474l-90.35674,89.78449c-3.71108,3.68758 -3.71108,9.61977 0,13.30734l50.34161,50.02279c1.93622,1.92395 4.35649,2.7256 6.77676,2.7256s4.84054,-0.96198 6.77676,-2.7256l90.35674,-89.78449c40.01513,27.09568 86.64566,40.56335 133.11484,40.56335c60.82945,0 121.6589,-23.08744 168.12808,-69.10199l121.01349,-120.24708c3.71108,-3.68758 3.71108,-9.61977 0,-13.30734l-51.14837,-50.82443l79.2235,-78.72176c3.71108,-3.68758 3.71108,-9.61977 0,-13.30734l-43.40351,-42.64763z"/>
</svg>