<svg xmlns="http://www.w3.org/2000/svg" viewBox="0 0 1024 1024">
    <path d="m549.39,1022.52l-74.92,0c-33.33,0 -62.06,-28.71 -62.06,-62.04l0,-44.82c0,-10.93 -8.9,-23.75 -18.96,-26.9l-1.78,-0.69l-63.32,-26.24l-1,-0.57c-9.26,-5.01 -25.01,-2.69 -32.44,4.76l-32.01,31.94c-11.28,11.34 -26.4,17.61 -42.54,17.61c-16.12,0 -31.24,-6.27 -42.58,-17.65l-53.05,-52.97c-23.4,-23.41 -23.44,-61.61 -0.07,-85.17l31.98,-31.93c7.53,-7.46 9.85,-23.39 4.83,-32.83l-0.94,-2.01l-26.32,-63.76l-0.31,-0.77c-3.18,-10.27 -16.22,-19.76 -26.82,-19.76l-45.03,0c-33.39,0 -60.06,-27.33 -60.06,-60.42l0,-74.91c0,-32.68 26.13,-58.78 60.13,-58.78l44.96,0c10.32,0 23.64,-10.03 26.89,-20.51l0.65,-1.67l26.31,-64.85l0.58,-1.04c5,-9.34 2.64,-25.24 -4.87,-32.75l-31.87,-31.89c-11.32,-11.28 -17.59,-26.37 -17.61,-42.48c-0.01,-16.13 6.24,-31.28 17.62,-42.65l53.01,-52.95c11.29,-11.34 26.4,-17.61 42.53,-17.61c0,0 0,0 0,0c16.11,0 31.23,6.27 42.57,17.65l31.86,31.86c7.45,7.42 23.29,9.77 32.55,4.8l1.02,-0.55l65.18,-26.86c10.04,-3.1 18.91,-15.94 18.91,-26.94l0,-45.01c0,-32.91 28.14,-59.17 62.06,-59.17l74.92,0c33.14,0 59.51,25.7 59.51,59.17l0,45.01c0,10.37 9.88,23.69 20.18,26.9l1.73,0.66l64.35,26.25l1.05,0.58c9.33,5.02 25.21,2.67 32.71,-4.84l31.99,-31.7c11.25,-11.29 26.34,-17.42 42.45,-17.42c0.02,0 0.05,0 0.07,0c16.12,0 31.26,6.11 42.62,17.48l53.07,52.87c11.37,11.31 17.64,26.42 17.64,42.57c0,16.11 -6.25,31.24 -17.59,42.63l-32.01,31.97c-7.48,7.51 -9.82,23.59 -4.77,33.06l0.53,1.02l26.88,65.82c3.29,10.52 16.62,20.58 26.92,20.58l44.46,0l0,-0.66c31.39,0 59.3,26.11 59.3,59.44l0,74.97c0,33.61 -26.12,60.36 -58.8,60.36l-45.03,0c-10.61,0 -23.69,9.51 -26.92,19.79l-0.66,1.73l-26.22,63.88l-0.53,0.98c-5.02,9.43 -2.73,25.35 4.74,32.78l31.96,31.83c11.4,11.38 17.66,26.52 17.66,42.64c0,16.11 -6.26,31.24 -17.63,42.59l-53.12,53.02c-11.27,11.32 -26.38,17.62 -42.49,17.62c-0.02,0 -0.05,0 -0.07,0c-16.12,0 -31.27,-6.26 -42.63,-17.63l-31.86,-31.91c-7.37,-7.37 -23.64,-9.75 -32.82,-4.78l-1.08,0.58l-65.83,26.9c-10.33,3.25 -20.25,16.58 -20.25,26.92l0,44.82c0,33.89 -26.93,62.04 -59.51,62.04zm-140.78,-176.8c28.62,9.51 50.31,39.36 50.31,69.93l0,44.82c0,8.09 7.46,15.55 15.55,15.55l74.92,0c7.39,0 14.17,-6.87 14.17,-15.55l0,-44.82c0,-29.84 22.17,-60.35 51.01,-69.95l61.19,-25.06c26.85,-13.77 64.01,-8.06 85.35,13.26l31.82,31.99c2.76,2.76 6.44,4.36 10.43,4.36c0,0 0.01,0 0.01,0c3.95,0 7.65,-1.59 10.38,-4.34l53.15,-53.09c2.76,-2.77 4.29,-6.51 4.29,-10.48c0,-3.96 -1.52,-7.69 -4.31,-10.46l-31.93,-31.8c-21.25,-21.14 -27,-58.33 -13.38,-85.23l25.1,-60.88c9.51,-28.59 40.02,-50.57 69.96,-50.57l45.03,0c8.79,0 12.28,-8.04 12.28,-15.03l0,-74.97c0,-7.79 -5.81,-13.71 -12.78,-13.97l0,1.68l-44.47,0c-29.8,0 -60.33,-22.89 -69.96,-51.94l-25.1,-61.64c-13.59,-26.86 -7.85,-64.18 13.33,-85.44l32.01,-32.03c2.76,-2.77 4.31,-6.54 4.31,-10.55c0,-3.98 -1.52,-7.68 -4.27,-10.43l-53.1,-52.9c-2.79,-2.81 -6.52,-4.25 -10.5,-4.25c0,0 -0.01,0 -0.01,0c-3.94,0 -7.61,1.43 -10.35,4.17l-32.03,31.85c-21.26,21.25 -58.42,26.97 -85.21,13.28l-61.2,-25.07c-28.86,-9.53 -51.05,-40.05 -51.05,-69.98l0,-45.01c0,-8.23 -6.27,-13.83 -14.17,-13.83l-74.92,0c-8.54,0 -15.55,6.26 -15.55,13.83l0,45.01c0,30.7 -21.71,60.59 -50.37,70.03l-60.78,24.99c-27.07,13.81 -63.47,8.21 -85.08,-13.29l-31.96,-31.94c-2.77,-2.78 -6.46,-4.29 -10.4,-4.29c-3.93,0 -7.61,1.51 -10.36,4.27l-53.05,52.98c-2.77,2.77 -4.29,6.49 -4.29,10.46c0.01,3.94 1.52,7.63 4.27,10.37l31.89,31.94c21.25,21.23 27.02,58.37 13.42,85.16l-25.13,62.27c-9.57,29.09 -40.1,52 -70,52l-44.96,0c-7.53,0 -14.78,3.87 -14.78,12.29l0,74.91c0,7.88 6.53,15.08 14.71,15.08l45.03,0c29.97,0 60.44,21.98 69.91,50.59l25.2,60.92c13.67,26.95 7.86,64.12 -13.47,85.25l-31.85,31.75c-5.7,5.76 -5.74,15.16 0.01,20.91l53.08,53c2.78,2.79 6.46,4.3 10.42,4.3c3.94,0 7.62,-1.52 10.36,-4.27l32.02,-31.94c21.18,-21.27 58.44,-26.98 85.22,-13.22l60.63,25.05z" fill="currentColor"/>
    <path d="m513.73,731.88c-120.64,0 -218.78,-98.15 -218.78,-218.79s98.14,-218.78 218.78,-218.78s218.79,98.14 218.79,218.78s-98.14,218.79 -218.79,218.79zm0,-397.56c-98.57,0 -178.77,80.2 -178.77,178.77s80.2,178.77 178.77,178.77s178.77,-80.19 178.77,-178.77s-80.19,-178.77 -178.77,-178.77z" fill="currentColor"/>
</svg>