<svg xmlns="http://www.w3.org/2000/svg" viewBox="0 0 1024 1024">
    <path fill="currentColor" d="m1003.08065,436.14586c-3.89944,-23.21917 -24.77003,-46.85426 -46.41755,-52.085l-16.18616,-3.97288c-38.03026,-12.34322 -71.77061,-39.32731 -93.22289,-79.06908c-21.45363,-39.95263 -26.5272,-85.34539 -17.16505,-126.96602l5.07223,-16.31754c6.43488,-22.59096 -1.95241,-53.75589 -18.91684,-69.23726c0,0 -15.21399,-13.8047 -58.11989,-40.36999c-42.90725,-26.35588 -61.43495,-33.67632 -61.43495,-33.67632c-20.86925,-8.1566 -50.12174,-0.41736 -65.33439,16.9443l-11.31456,12.96854c-28.86336,29.28463 -67.67459,47.06366 -110.5778,47.06366s-82.10357,-17.98554 -110.97097,-47.48102l-10.92542,-12.55262c-15.0174,-17.36022 -44.46379,-25.09657 -65.33439,-16.94286c0,0 -18.7216,7.32044 -61.62885,33.67487c-42.90725,26.77469 -57.92331,40.57939 -57.92331,40.57939c-16.96577,15.27052 -25.35306,46.22749 -18.91684,69.02786l4.68444,16.52405c9.16556,41.62352 4.28857,86.80833 -17.16505,126.75662s-55.57368,67.14901 -93.79515,79.28282l-15.60178,3.76348c-21.45363,5.23074 -42.51811,28.65787 -46.41755,52.085c0,0 -3.50895,20.91574 -3.50895,74.0463s3.50895,74.0463 3.50895,74.0463c3.89944,23.42713 24.76868,46.85426 46.41755,52.085l15.21399,3.76348c38.22416,12.13526 72.54888,39.32731 94.00251,79.48645c21.45363,39.95407 26.5272,85.34539 17.16505,126.96747l-4.48381,16.10669c-6.43488,22.59096 1.95241,53.75589 18.91549,69.23726c0,0 15.21399,13.8047 58.11989,40.36999s61.43361,33.67632 61.43361,33.67632c20.86925,8.15516 50.12174,0.41736 65.33439,-16.9443l10.72614,-12.34322c29.05591,-29.49404 68.06372,-47.48102 111.16621,-47.48102s82.29882,18.19639 111.16621,47.68898l10.72614,12.34322c15.0174,17.36022 44.46379,25.1038 65.33439,16.94286c0,0 18.7216,-7.32044 61.62885,-33.67487c42.90725,-26.56673 57.92331,-40.36999 57.92331,-40.36999c16.96577,-15.27052 25.35306,-46.43545 18.91549,-69.23726l-4.68444,-16.7349c-9.16556,-41.41411 -4.28857,-86.59748 17.16505,-126.3407c21.45363,-39.95407 55.777,-67.35263 94.00251,-79.48645l15.21399,-3.76348c21.45363,-5.23074 42.51811,-28.65787 46.41755,-52.085c0,0 3.50895,-20.91574 3.50895,-74.0463c-0.20467,-53.34286 -3.71497,-74.26004 -3.71497,-74.26004l-0.00135,0.00722zm-493.60573,286.77508c-109.41039,0 -198.34202,-95.17144 -198.34202,-212.72878c0,-117.34649 88.73504,-212.52082 198.34202,-212.52082c109.41039,0 198.34202,95.17144 198.34202,212.72878c-0.19928,117.34649 -88.93432,212.52082 -198.34202,212.52082z"/>
</svg>