<svg xmlns="http://www.w3.org/2000/svg" viewBox="0 0 1024 1024">
    <path d="m955.09,144.88l-405.99,0l-23.02,-142.88l-409.41,0c-63.03,0 -114.66,51.73 -114.66,116.16l0,587.92c0,63.9 51.52,116.16 114.66,116.16l324.84,0l0,109.14c0,51.07 29.06,90.62 66.11,90.62l447.48,0c37.04,0 66.11,-39.56 66.11,-90.62l0,-695.88c-0.11,-50.01 -29.63,-90.62 -66.11,-90.62zm-647.17,463.04l-226.7,0l0,-385.25l219.75,0l0,56.89l-172.22,0l0,102.26l162.19,0l0,55.17l-162.19,0l0,116.82l179.17,0l0,54.11zm138.6,-237.07c-33.51,3.44 -51.52,25 -54.6,64.43l0,172.51l-44.45,0l0,-283.38l44.57,0l0,34.79c12.99,-26.72 33.05,-40.61 60.07,-40.61c54.03,-2.38 80.58,34.26 78.53,109.28l0,180.05l-46.05,0l0,-174.37c0,-41.81 -12.99,-62.71 -38.07,-62.71zm510.51,560.54c0,9.92 -3.53,15.74 -2.05,16.27l-444.4,0.53c-1.48,-1.19 -5.02,-7.01 -5.02,-16.8l0,-109.28l153.64,0l-98.14,-603l390.95,-0.53c1.48,1.19 5.02,7.01 5.02,16.8l0,696.01z"/>
    <path d="m782.16,776.96c42.89,-55.91 71.78,-129.16 86.51,-217.87l78.78,0l0,-67.98l-161.36,0l-5.11,-10.37c-14.74,-35.01 -26.26,-58.97 -34.58,-73.93l-6.42,-11.22l-51.94,32.12l5.11,13.43c10.21,23.11 17.36,38.75 22.47,49.96l-91.04,0l38.52,237.41l0,0.68c8.9,16.48 19.26,32.8 30.05,47.75c-6.42,5.27 -12.84,10.37 -20.42,14.96l11.53,70.87c21.15,-13.43 38.37,-26.17 53.1,-38.07c37.2,32.8 96.14,65.6 179.45,99.25l10.21,3.74l5.11,-10.37c2.63,-4.42 5.84,-11.22 11.53,-23.11c3.21,-9.69 5.84,-17.16 7.73,-22.43l7,-17.16l-15.32,-3.74c-71.2,-20.22 -125.03,-44.7 -160.92,-73.93zm-117.88,-217.87l142.83,0c-10.21,66.45 -33.26,123.21 -68.57,170.12c-36.47,-48.43 -61.42,-105.88 -74.26,-170.12z"/>
</svg>