<svg xmlns="http://www.w3.org/2000/svg" viewBox="0 0 1024 1024">
    <path d="M414.254545 595.781818H172.218182c-86.109091 0-155.927273-67.490909-155.927273-148.945454V218.763636C16.290909 137.309091 86.109091 69.818182 172.218182 69.818182h242.036363c86.109091 0 155.927273 67.490909 155.927273 148.945454v228.072728c-2.327273 81.454545-69.818182 148.945455-155.927273 148.945454zM172.218182 137.309091c-48.872727 0-86.109091 34.909091-86.109091 81.454545v228.072728c0 44.218182 39.563636 81.454545 86.109091 81.454545h242.036363c48.872727 0 86.109091-34.909091 86.109091-81.454545V218.763636c0-44.218182-39.563636-81.454545-86.109091-81.454545H172.218182z" fill="currentColor"></path><path d="M837.818182 861.090909H595.781818c-90.763636 0-155.927273-69.818182-155.927273-167.563636v-141.963637c0-18.618182 16.290909-34.909091 34.909091-34.909091s34.909091 16.290909 34.909091 34.909091v141.963637c0 58.181818 34.909091 100.072727 86.109091 100.072727H837.818182c48.872727 0 86.109091-34.909091 86.109091-81.454545v-228.072728c0-44.218182-39.563636-81.454545-86.109091-81.454545H544.581818c-18.618182 0-34.909091-16.290909-34.909091-34.909091s16.290909-34.909091 34.909091-34.909091H837.818182c86.109091 0 155.927273 67.490909 155.927273 148.945455v228.072727c0 86.109091-69.818182 151.272727-155.927273 151.272727zM262.981818 847.127273c-102.4 0-183.854545-74.472727-183.854545-167.563637 0-18.618182 16.290909-34.909091 34.909091-34.909091s34.909091 16.290909 34.909091 34.909091c0 55.854545 51.2 100.072727 116.363636 100.072728 18.618182 0 34.909091 16.290909 34.909091 34.909091-4.654545 18.618182-18.618182 32.581818-37.236364 32.581818zM861.090909 281.6c-18.618182 0-34.909091-16.290909-34.909091-34.909091 0-55.854545-51.2-100.072727-116.363636-100.072727-18.618182 0-34.909091-16.290909-34.909091-34.909091s16.290909-34.909091 34.909091-34.909091c102.4 0 183.854545 74.472727 183.854545 167.563636 2.327273 20.945455-11.636364 37.236364-32.581818 37.236364z" fill="currentColor"></path><path d="M660.945455 686.545455h-39.563637l88.436364-165.236364h41.890909l88.436364 165.236364h-41.89091l-23.272727-46.545455h-93.090909l-20.945454 46.545455z m69.818181-139.636364l-37.236363 72.145454H768l-37.236364-72.145454z" fill="currentColor"></path><path d="M286.254545 200.145455h23.272728v39.563636H395.636364V349.090909h-23.272728v-13.963636h-62.836363v76.8h-23.272728v-76.8H223.418182v13.963636h-23.272727v-109.381818h86.10909V200.145455z m-62.836363 116.363636h62.836363v-55.854546H223.418182v55.854546z m86.109091 0H372.363636v-55.854546h-62.836363v55.854546z" fill="currentColor"/>
</svg>