<svg xmlns="http://www.w3.org/2000/svg" viewBox="0 0 1024 1024">
    <path fill="currentColor" d="m587.41,16.6a73.69,99.46 0 0 0 -75.3,3.9l-333.02,291.12l-137.69,0c-20.36,0 -36.86,22.27 -36.86,49.75l0,301.8c0,27.48 16.5,49.75 36.86,49.75l137.69,0l333.02,291.12a73.69,99.46 0 0 0 75.3,3.91a73.68,99.44 0 0 0 38.51,-87.42l0,-816.51c0,-36.49 -14.76,-69.99 -38.51,-87.42zm-35.22,903.91l-342.16,-299.13a36.83,49.71 0 0 0 -20.04,-7.99l-111.72,0l0,-202.29l111.72,0c7.11,0 14.07,-2.77 20.04,-7.99l342.16,-299.11l0,816.51zm198.13,-620.61c-17.93,-13.02 -40.28,-3.96 -49.93,20.23c-9.65,24.2 -2.94,54.37 14.99,67.38c27.12,19.7 43.32,59.61 43.32,106.77c0,46.5 -23.58,83.34 -45.64,102.3c-17.18,14.76 -22.24,45.51 -11.31,68.69c7.03,14.89 18.95,23.04 31.14,23.04c6.77,0 13.63,-2.52 19.76,-7.79c49.21,-42.28 79.79,-113.64 79.79,-186.23c-0.01,-84.37 -30.71,-157.04 -82.12,-194.39zm127.49,-140.52c-17.93,-13.02 -40.28,-3.96 -49.93,20.23c-9.65,24.2 -2.94,54.37 14.99,67.38c64.55,46.89 103.1,140.46 103.1,250.32c0,92.05 -40.39,183.94 -105.42,239.8c-17.18,14.76 -22.24,45.51 -11.31,68.69c7.03,14.89 18.95,23.04 31.14,23.04c6.77,0 13.63,-2.52 19.76,-7.79c40.15,-34.48 74.27,-81.02 98.7,-134.55c26.74,-58.59 40.86,-124.02 40.86,-189.2c0,-147.06 -53.05,-273.4 -141.89,-337.92z"/>
</svg>