
<svg xmlns="http://www.w3.org/2000/svg" viewBox="0 0 1024 1024">
<g transform="matrix(2.7111590984 0 0 2.7111590984 511.0058252427 512)"  >
<path style="fill: rgb(0,144,253);"  transform=" translate(0, 0)" d="M -187.37373 -107.87779 C -187.37373 -151.78219 -151.78217999999998 -187.37373000000002 -107.87778999999999 -187.37373000000002 L 107.87779000000002 -187.37373000000002 L 107.87779000000002 -187.37373000000002 C 151.78219 -187.37373000000002 187.37373000000002 -151.78218000000004 187.37373000000002 -107.87779000000002 L 187.37373000000002 107.87778999999999 L 187.37373000000002 107.87778999999999 C 187.37373000000002 151.78218999999999 151.78218000000004 187.37373 107.87779000000002 187.37373 L -107.87778999999999 187.37373 L -107.87778999999999 187.37373 C -151.78218999999999 187.37373 -187.37373 151.78217999999998 -187.37373 107.87778999999999 z" />
</g>
<g transform="matrix(1.6671469577 0 0 1.6671469638 512 512)">
<path transform=" translate(-495.18, -431.8665)" style="fill: rgb(255,255,255);" d="M 482.32 641.806 L 482.32 641.806 Q 474.604 641.806 466.567 639.234 Q 458.529 636.662 453.385 627.017 Q 448.241 617.372 448.241 597.439 L 448.241 597.439 Q 448.241 583.293 450.492 562.717 Q 452.742 542.141 456.6 518.35 L 456.6 518.35 Q 461.744 486.2 465.281 450.514 Q 468.817 414.827 468.817 377.533 L 468.817 377.533 Q 468.817 347.312 465.924 325.129 Q 463.03 302.945 458.529 290.728 L 458.529 290.728 Q 434.095 291.371 412.233 293.943 Q 390.371 296.515 367.866 302.302 L 367.866 302.302 Q 362.079 302.945 357.9 303.91 Q 353.72 304.874 349.862 304.874 L 349.862 304.874 Q 344.075 304.874 341.503 302.624 Q 338.931 300.373 338.931 291.371 L 338.931 291.371 Q 338.931 280.44 342.146 268.545 Q 345.361 256.649 351.791 248.29 L 351.791 248.29 Q 358.221 239.288 366.902 235.109 Q 375.582 230.929 385.87 229.643 L 385.87 229.643 Q 401.945 227.714 427.022 226.107 Q 452.099 224.499 481.999 223.213 Q 511.898 221.927 540.833 221.927 L 540.833 221.927 Q 587.772 221.927 608.027 222.57 Q 628.281 223.213 635.354 224.499 L 635.354 224.499 Q 644.356 225.785 647.893 229.965 Q 651.429 234.144 651.429 243.146 L 651.429 243.146 Q 651.429 260.507 635.997 277.868 L 635.997 277.868 Q 629.567 285.584 622.494 289.764 Q 615.421 293.943 603.847 293.3 L 603.847 293.3 Q 593.559 292.014 573.626 291.371 Q 553.693 290.728 529.259 290.728 L 529.259 290.728 Q 528.616 313.233 525.723 343.133 Q 522.829 373.032 518.971 403.253 L 518.971 403.253 Q 515.113 432.831 512.541 462.409 Q 509.969 491.987 509.969 516.421 L 509.969 516.421 Q 509.969 538.926 514.149 555.966 Q 518.328 573.005 531.188 585.222 L 531.188 585.222 Q 540.19 594.224 540.19 604.512 L 540.19 604.512 Q 540.19 618.658 524.115 630.232 Q 508.04 641.806 482.32 641.806 Z"/>
</g>
<g transform="matrix(15.9641559183 0 0 15.9641559183 346.3016754719 512)">
<path  transform=" translate(-634.748, -334.847)" style="fill: rgb(255,255,255);" d="M 633.818 341.447 L 633.818 341.447 Q 631.758 341.447 630.528 340.237 Q 629.298 339.027 629.298 336.667 L 629.298 336.667 Q 629.298 335.607 629.588 334.467 Q 629.878 333.327 630.558 332.207 L 630.558 332.207 Q 630.178 332.547 629.838 332.547 L 629.838 332.547 Q 629.258 332.547 629.258 331.627 L 629.258 331.627 Q 629.258 330.967 629.538 330.567 Q 629.818 330.167 630.078 329.927 L 630.078 329.927 Q 630.518 329.547 631.198 329.157 Q 631.878 328.767 632.798 328.507 Q 633.718 328.247 634.858 328.247 L 634.858 328.247 Q 637.538 328.247 638.888 329.757 Q 640.238 331.267 640.238 333.947 L 640.238 333.947 Q 640.238 335.527 639.778 336.887 Q 639.318 338.247 638.468 339.267 Q 637.618 340.287 636.438 340.867 Q 635.258 341.447 633.818 341.447 Z M 634.518 339.207 L 634.518 339.207 Q 635.518 339.207 636.488 338.747 Q 637.458 338.287 638.088 337.277 Q 638.718 336.267 638.718 334.647 L 638.718 334.647 Q 638.718 333.127 638.138 332.217 Q 637.558 331.307 636.668 330.897 Q 635.778 330.487 634.798 330.487 L 634.798 330.487 Q 634.058 330.487 633.468 330.677 Q 632.878 330.867 632.418 331.087 L 632.418 331.087 Q 631.898 331.887 631.438 333.037 Q 630.978 334.187 630.978 335.467 L 630.978 335.467 Q 630.978 336.747 631.478 337.577 Q 631.978 338.407 632.788 338.807 Q 633.598 339.207 634.518 339.207 Z"/>
</g>
<g transform="matrix(18.1818181818 0 0 18.1818187204 678.294973677 398.6544929799)">
<path transform=" translate(-644.09, -420.699)" style="fill: rgb(255,255,255);" d="M 643.61 424.919 L 643.61 424.919 Q 642.87 424.919 642.23 424.699 Q 641.59 424.479 641.19 424.079 Q 640.79 423.679 640.79 423.119 L 640.79 423.119 Q 640.79 422.819 640.94 422.549 Q 641.09 422.279 641.43 422.279 L 641.43 422.279 Q 641.61 422.279 641.81 422.379 L 641.81 422.379 Q 642.17 422.579 642.73 422.749 Q 643.29 422.919 643.91 422.919 L 643.91 422.919 Q 644.61 422.919 645.15 422.719 Q 645.69 422.519 645.69 422.159 L 645.69 422.159 Q 645.69 421.879 645.28 421.759 Q 644.87 421.639 643.91 421.499 L 643.91 421.499 Q 643.25 421.379 642.63 421.219 Q 642.01 421.059 641.61 420.669 Q 641.21 420.279 641.21 419.519 L 641.21 419.519 Q 641.21 418.779 641.62 418.089 Q 642.03 417.399 642.85 416.939 Q 643.67 416.479 644.85 416.479 L 644.85 416.479 Q 645.47 416.479 646.05 416.619 Q 646.63 416.759 647.01 417.039 Q 647.39 417.319 647.39 417.739 L 647.39 417.739 Q 647.39 418.099 647.14 418.399 Q 646.89 418.699 646.56 418.889 Q 646.23 419.079 646.01 419.079 L 646.01 419.079 Q 645.85 419.079 645.63 418.859 L 645.63 418.859 Q 645.29 418.579 644.88 418.469 Q 644.47 418.359 644.07 418.359 L 644.07 418.359 Q 643.47 418.359 643.1 418.539 Q 642.73 418.719 642.73 418.999 L 642.73 418.999 Q 642.73 419.259 643.04 419.419 Q 643.35 419.579 643.81 419.649 Q 644.27 419.719 644.69 419.779 L 644.69 419.779 Q 645.85 419.939 646.53 420.329 Q 647.21 420.719 647.21 421.699 L 647.21 421.699 Q 647.21 422.459 646.78 423.209 Q 646.35 423.959 645.54 424.439 Q 644.73 424.919 643.61 424.919 Z"/>
</g>
<g transform="matrix(10.3092783505 0 0 10.3092783661 678.294973677 625.3455070201)">
<path transform=" translate(-664.125, -606.168)" style="fill: rgb(255,255,255);" d="M 668.385 612.778 L 668.385 612.778 Q 667.765 612.778 667.335 612.248 Q 666.905 611.718 666.505 610.498 L 666.505 610.498 Q 666.305 609.898 666.175 609.328 Q 666.045 608.758 665.985 608.218 L 665.985 608.218 Q 665.725 608.618 665.515 608.748 Q 665.305 608.878 664.905 608.878 L 664.905 608.878 Q 663.925 608.878 662.825 608.848 Q 661.725 608.818 660.865 608.798 L 660.865 608.798 Q 660.825 609.158 660.795 609.528 Q 660.765 609.898 660.765 610.258 L 660.765 610.258 Q 660.765 610.578 660.795 610.898 Q 660.825 611.218 660.845 611.518 L 660.845 611.518 Q 660.905 612.078 660.405 612.418 Q 659.905 612.758 659.165 612.758 L 659.165 612.758 Q 658.525 612.758 658.525 612.198 L 658.525 612.198 Q 658.525 611.858 658.705 611.178 L 658.705 611.178 Q 658.805 610.718 658.865 610.388 Q 658.925 610.058 658.925 609.858 L 658.925 609.858 Q 658.925 609.298 658.585 609.098 L 658.585 609.098 Q 658.305 608.938 658.305 608.678 L 658.305 608.678 Q 658.305 608.438 658.415 608.098 Q 658.525 607.758 658.705 607.468 Q 658.885 607.178 659.045 607.058 L 659.045 607.058 Q 659.185 606.978 659.385 606.918 Q 659.585 606.858 659.885 606.838 L 659.885 606.838 Q 660.665 604.598 661.635 602.968 Q 662.605 601.338 663.705 600.448 Q 664.805 599.558 665.945 599.558 L 665.945 599.558 Q 666.645 599.558 666.965 600.028 Q 667.285 600.498 667.285 601.598 L 667.285 601.598 L 667.285 602.498 Q 667.285 604.518 667.585 606.218 Q 667.885 607.918 668.325 608.978 L 668.325 608.978 Q 668.765 610.098 669.545 610.818 L 669.545 610.818 Q 669.785 611.018 669.865 611.168 Q 669.945 611.318 669.945 611.478 L 669.945 611.478 Q 669.945 611.778 669.715 612.078 Q 669.485 612.378 669.125 612.578 Q 668.765 612.778 668.385 612.778 Z M 661.465 606.718 L 661.465 606.718 Q 662.445 606.678 663.185 606.648 Q 663.925 606.618 664.425 606.618 L 664.425 606.618 L 665.825 606.618 Q 665.785 606.058 665.755 605.438 Q 665.725 604.818 665.725 604.138 L 665.725 604.138 L 665.725 602.978 Q 665.725 602.398 665.595 602.208 Q 665.465 602.018 665.105 602.018 L 665.105 602.018 Q 664.125 602.018 663.145 603.298 Q 662.165 604.578 661.465 606.718 Z" />
</g>
</svg>