<svg width="1024" height="1024" xmlns="http://www.w3.org/2000/svg">
    <path  fill="currentColor" d="m448.00023,735.85381l-103.99128,0c-27.02105,0 -53.97707,-5.8955 -80.11667,-17.70095c-25.28708,-11.41531 -49.32786,-28.29262 -69.51778,-48.88714c-20.66315,-21.07858 -36.96247,-45.22412 -48.44281,-71.81167c-11.92104,-27.59542 -17.95743,-56.35405 -17.95743,-85.47031s6.04722,-57.87488 17.96827,-85.4703c11.48033,-26.58394 27.77966,-50.75115 48.44281,-71.82974c20.18992,-20.5909 44.2307,-37.54407 69.51777,-48.95938c26.13961,-11.80184 53.10285,-17.81294 80.11667,-17.81294l103.99128,0a31.97008,31.97008 0 0 0 0,-63.94017l-104.00211,0c-36.15329,0 -71.9634,7.91847 -106.42607,23.48086c-32.91293,14.85796 -62.81309,35.88235 -88.86599,62.46268c-26.19019,26.73205 -46.87501,57.43778 -61.48372,91.25021c-15.3926,35.64393 -23.19908,72.93875 -23.19908,110.83323s7.80648,75.1857 23.19908,110.83324c14.60871,33.83049 35.29715,64.529 61.48372,91.24298c26.05652,26.58033 55.95667,47.50358 88.86599,62.36154c34.46267,15.55877 70.26916,23.35803 106.42607,23.35803l103.99128,0a31.97008,31.97008 0 1 0 0,-63.94017zm488.77021,-334.68524c-14.60871,-33.83049 -35.29353,-64.529 -61.48371,-91.24298c-26.05652,-26.58033 -55.95668,-47.62279 -88.866,-62.4952c-34.46267,-15.55877 -70.27277,-23.48085 -106.42606,-23.48085l-103.9949,0a31.97008,31.97008 0 0 0 0,63.94017l103.99128,0c27.02105,0 53.97707,6.0111 80.11667,17.81293c25.28708,11.41531 49.32786,28.35043 69.51778,48.94855c20.66315,21.07858 36.96247,45.25302 48.44281,71.84057c11.92104,27.59543 17.95743,56.35405 17.95743,85.48476s-6.04361,57.88933 -17.95743,85.48114c-11.48034,26.58394 -27.77966,50.75477 -48.44281,71.83335c-20.18992,20.5909 -44.2307,37.42848 -69.51778,48.84379c-26.1396,11.80183 -53.10285,17.70095 -80.11667,17.70095l-103.99128,0a31.97008,31.97008 0 0 0 0,63.94017l103.99128,0c36.15329,0 71.9634,-7.79926 106.42607,-23.35803c32.91293,-14.85796 62.81309,-35.82456 88.86599,-62.40489c26.19019,-26.73204 46.87501,-57.39081 61.48372,-91.2213c15.3926,-35.64394 23.19908,-72.92431 23.19908,-110.81879s-7.80287,-75.15679 -23.19547,-110.80434z"/>
    <path  fill="currentColor" d="m285.92454,511.70197a31.97008,31.97008 0 0 0 31.97009,31.97009l388.33718,0a31.97008,31.97008 0 0 0 0,-63.94017l-388.33718,0a31.97008,31.97008 0 0 0 -31.97009,31.97008z"/>
</svg>